<?xml version="1.0" encoding="utf-8"?>
<!-- Generator: Adobe Illustrator 20.0.0, SVG Export Plug-In . SVG Version: 6.00 Build 0)  -->
<svg version="1.1" xmlns="http://www.w3.org/2000/svg" xmlns:xlink="http://www.w3.org/1999/xlink" x="0px" y="0px" width="1200px"
	 height="470px" viewBox="0 0 1200 470" style="enable-background:new 0 0 1200 470;" xml:space="preserve">
<style type="text/css">
	.st0{opacity:0.12;}
	.st1{fill:#FFFFFF;}
	.st2{opacity:8.000000e-02;fill:#282828;}
	.st3{fill:#282828;}
	.st4{fill:#FFC308;}
</style>
<g id="bg" class="st0">
	<rect class="st1" width="1200" height="470"/>
</g>
<g id="glasses">
	<path class="st2" d="M120,87.2c11.7-1.4,23.4-2.7,35.2-4.1c53.9-6.2,108-7.8,162.1-9.3c51.7-1.4,102.4,3.9,152.7,15.4
		c19.9,4.5,39.2,10.5,57.3,20.2c11.7,6.3,24.5,10.1,37.8,10.3c24.6,0.4,49.3,0.8,73.9-0.7c11-0.7,22.5-4.1,32.4-9.2
		c26-13.3,53.9-19.7,82.2-25.7c54.1-11.3,108.9-12,163.7-9.4c42.9,2,85.8,5.4,128.6,8.5c11.4,0.8,22.8,2.6,34.2,3.9
		c0,4.3,0,8.7,0,13c-0.6,10.1-1.9,20.2-1.7,30.3c0.1,8.3-1.7,13.6-10.1,17.6c-13.8,6.6-18.7,20-21.1,34.3
		c-5.8,34.2-12.2,68.2-23.1,101.2c-3.6,11-8,21.9-12.6,32.6c-17.7,41-50.2,64-92.2,74.9c-22.3,5.8-45.2,5.9-68,4.2
		c-27-1.9-53.5-6.5-79.3-14.8c-34.8-11.2-62.8-31-83.7-61.5c-24.7-36.1-43.6-74.6-52.5-117.8c-5.1-24.5-26.6-36.5-49.5-27.8
		c-13,4.9-19.1,15.3-21.8,28.3c-9.5,46.7-30.6,88-58.9,126.1c-18.9,25.4-43.9,41.5-73.3,51.3c-43.9,14.7-89,21.2-134.9,14.8
		c-49.9-6.9-88.5-31.3-109-79.1c-6.2-14.3-12-29-15.8-44.1c-7.3-29-13.3-58.4-19.1-87.8c-3.5-17.7-10.8-31.7-28.3-38.8
		c-1.3-0.5-2.5-3-2.6-4.6c-0.7-11.1-1-22.3-1.5-33.5c-0.1-2-0.5-3.9-0.8-5.9C120,95.9,120,91.6,120,87.2z M856,101
		c-33.3,0.9-56,0.9-78.6,2.4c-21.9,1.4-43.2,6.4-62.7,16.9c-16.5,8.8-29.2,21.2-34,39.8c-2.3,8.8-4,17.9-4.6,27
		c-2.9,43.2,8.9,82.4,33.3,117.8c12.2,17.7,26.4,33.8,46.4,43c42.2,19.5,86.6,27,132.9,22.8c18.9-1.7,37-6.7,53.7-16.1
		c18.4-10.3,30.6-26.5,41.5-43.8c25.5-40.2,31.2-85.2,30.6-131.4c-0.3-23.6-12.1-42.2-32-55.2c-16-10.4-33.7-17.2-52.7-18.9
		C901.7,103,873.6,102,856,101z M335.7,372.2c32.7-0.7,65-6.4,96-18.6c11.7-4.6,22.9-10,32.3-18.5c30.3-27.3,48.6-61.3,56.9-100.9
		c4.2-20.1,4.4-40.2,1.6-60.6c-4-28.5-20.3-46.6-46-57.4c-22-9.2-45.1-13.4-68.7-13.8c-35.6-0.6-71.3-0.5-106.9,0.2
		c-13.6,0.3-27.2,2.4-40.6,4.8c-8.8,1.6-17.4,4.6-25.6,8.1c-36.4,15.3-52.6,42.5-49.2,81.9c1,11.9,2.2,23.9,3.7,35.8
		c4.8,38.3,19.3,72.5,44.7,101.8c7.3,8.4,15.7,15.3,25.5,20.6C282.9,368.4,308.7,371.9,335.7,372.2z M144.4,115.1c0,3.2,0,6.1,0,9.4
		c14,0,27.7,0,41.7,0c0-3.2,0-6.1,0-9.4C172.1,115.1,158.4,115.1,144.4,115.1z M1055.6,115.1c-14.1,0-27.8,0-41.7,0
		c0,3.3,0,6.2,0,9.3c14,0,27.8,0,41.7,0C1055.6,121.4,1055.6,118.6,1055.6,115.1z"/>
</g>
<g id="segoue_ui_light_x2F_282828">
	<g>
		<path class="st3" d="M492.4,210v-49.7c0-1.2,0.2-4.6,0.5-10.3h-0.2c-1,2.6-1.9,4.7-2.5,6.1L465.3,210h-1.6l-25-53.6
			c-0.8-1.7-1.6-3.9-2.3-6.6h-0.2c0.2,3.1,0.3,6.2,0.3,9.3V210h-4.8v-70h4.5l26.1,56.4c0.2,0.3,0.3,0.8,0.5,1.3
			c0.2,0.6,0.4,1.1,0.6,1.7c0.3,0.8,0.7,1.8,1,2.8h0.3l0.5-1.6c0-0.1,0.6-1.7,1.7-4.6l25.7-56h4.3v70H492.4z"/>
		<path class="st3" d="M515,210v-70h4.8v70H515z"/>
		<path class="st3" d="M584.4,207.7c-5.7,2.3-11.6,3.5-17.7,3.5c-9.6,0-17.4-3.2-23.4-9.6c-6-6.4-9.1-14.8-9.1-25.2
			c0-11.4,3.3-20.5,9.8-27.3c6.5-6.9,14.9-10.3,25-10.3c5.4,0,10.5,0.9,15.4,2.6v5.1c-4.9-2.2-10.1-3.3-15.5-3.3
			c-8.8,0-15.9,3-21.4,8.9c-5.5,6-8.3,13.9-8.3,23.8c0,9.5,2.6,17.1,7.9,22.6c5.3,5.5,11.9,8.3,20,8.3c6.4,0,12.2-1.3,17.3-3.8
			V207.7z"/>
		<path class="st3" d="M644.9,210v-33.6h-40.1V210H600v-70h4.8v32h40.1v-32h4.8v70H644.9z"/>
		<path class="st3" d="M667.6,210v-70h4.8v70H667.6z"/>
		<path class="st3" d="M690.4,210v-70h32.7v4.4h-27.9v28.1h25.9v4.4h-25.9v28.7h29.5v4.4H690.4z"/>
		<path class="st3" d="M740.4,210v-70h4.8v65.6h28.1v4.4H740.4z"/>
		<path class="st3" d="M259.7,331.2c-9.9,0-17.8-3.3-23.7-9.9c-5.9-6.6-8.8-15.1-8.8-25.6c0-11.2,3-20.1,9.1-26.8
			c6-6.7,14.3-10.1,24.7-10.1c9.4,0,17.1,3.2,22.9,9.7c5.8,6.5,8.8,14.9,8.8,25.4c0,11.6-3,20.7-9,27.3
			C277.7,327.9,269.7,331.2,259.7,331.2z M260.2,263.2c-8.1,0-14.8,2.9-20.1,8.8c-5.3,5.9-7.9,13.6-7.9,23.1c0,9.6,2.5,17.3,7.5,23
			s11.6,8.6,19.9,8.6c8.7,0,15.5-2.8,20.6-8.5c5-5.6,7.6-13.5,7.6-23.6c0-9.9-2.5-17.6-7.4-23.2C275.4,266,268.7,263.2,260.2,263.2z
			"/>
		<path class="st3" d="M311.8,301.9V330H307v-70h16.9c7.2,0,12.7,1.7,16.5,5c3.8,3.3,5.7,8.2,5.7,14.6c0,6.5-2.1,11.9-6.4,16
			c-4.2,4.2-10.2,6.3-17.8,6.3H311.8z M311.8,264.4v33.1h10c6.3,0,11.1-1.5,14.4-4.5c3.3-3,4.9-7.3,4.9-12.8
			c0-10.5-6-15.8-18.1-15.8H311.8z"/>
		<path class="st3" d="M366.2,301.9V330h-4.8v-70h16.9c7.2,0,12.7,1.7,16.5,5c3.8,3.3,5.7,8.2,5.7,14.6c0,6.5-2.1,11.9-6.4,16
			c-4.2,4.2-10.2,6.3-17.8,6.3H366.2z M366.2,264.4v33.1h10c6.3,0,11.1-1.5,14.4-4.5c3.3-3,4.9-7.3,4.9-12.8
			c0-10.5-6-15.8-18.1-15.8H366.2z"/>
		<path class="st3" d="M415.8,330v-70h32.7v4.4h-27.9v28.1h25.9v4.4h-25.9v28.7h29.5v4.4H415.8z"/>
		<path class="st3" d="M515.3,330l-41.7-56.6c-0.8-1.1-1.6-2.3-2.2-3.4l-0.6-1h-0.2c0.1,0.8,0.1,1.9,0.1,3.1V330h-4.8v-70h3.7
			l41.4,56.1c0.9,1.2,1.9,2.7,3,4.5h0.2c-0.2-2.3-0.2-4.2-0.2-5.9V260h4.8v70H515.3z"/>
		<path class="st3" d="M581.6,330v-33.6h-40.1V330h-4.8v-70h4.8v32h40.1v-32h4.8v70H581.6z"/>
		<path class="st3" d="M604.3,330v-70h32.7v4.4h-27.9v28.1h25.9v4.4h-25.9v28.7h29.5v4.4H604.3z"/>
		<path class="st3" d="M654.3,330v-70h4.8v70H654.3z"/>
		<path class="st3" d="M737.8,330v-49.7c0-1.2,0.2-4.6,0.5-10.3h-0.2c-1,2.6-1.9,4.7-2.5,6.1L710.7,330h-1.6l-25-53.6
			c-0.8-1.7-1.6-3.9-2.3-6.6h-0.2c0.2,3.1,0.3,6.2,0.3,9.3V330h-4.8v-70h4.5l26.1,56.4c0.2,0.3,0.3,0.8,0.5,1.3
			c0.2,0.6,0.4,1.1,0.6,1.7c0.3,0.8,0.7,1.8,1,2.8h0.3l0.5-1.6c0-0.1,0.6-1.7,1.7-4.6l25.7-56h4.3v70H737.8z"/>
		<path class="st3" d="M760.4,330v-70h32.7v4.4h-27.9v28.1h25.9v4.4h-25.9v28.7h29.5v4.4H760.4z"/>
		<path class="st3" d="M846.3,330l-9.3-20.5c-1.9-4.2-3.8-7.1-5.8-8.5c-1.9-1.4-4.3-2.2-7.2-2.2h-8.7V330h-4.8v-70h19.4
			c6.2,0,11,1.7,14.6,5c3.5,3.3,5.3,7.7,5.3,13.2c0,5-1.4,9.3-4.3,12.6c-2.9,3.4-7,5.6-12.2,6.5v0.2c2.8,1.1,5.5,4.5,8.1,10.1
			l10.4,22.3H846.3z M815.3,264.4v30h12.1c5.3,0,9.6-1.4,12.7-4.2c3.1-2.8,4.7-6.6,4.7-11.5c0-4.5-1.4-8-4.2-10.5
			c-2.8-2.5-6.9-3.8-12.2-3.8H815.3z"/>
		<path class="st4" d="M868.1,330.9c-1.1,0-2-0.4-2.8-1.1c-0.7-0.8-1.1-1.7-1.1-2.8c0-1.1,0.4-2.1,1.1-2.8c0.7-0.7,1.7-1.1,2.8-1.1
			c1.1,0,2.1,0.4,2.8,1.1s1.2,1.7,1.2,2.8c0,1.1-0.4,2-1.2,2.8S869.2,330.9,868.1,330.9z"/>
		<path class="st3" d="M888.2,330v-70h4.8v70H888.2z"/>
		<path class="st3" d="M939.8,331.2c-9.9,0-17.8-3.3-23.7-9.9c-5.9-6.6-8.8-15.1-8.8-25.6c0-11.2,3-20.1,9.1-26.8
			c6-6.7,14.3-10.1,24.7-10.1c9.4,0,17.1,3.2,22.9,9.7c5.8,6.5,8.8,14.9,8.8,25.4c0,11.6-3,20.7-9,27.3
			C957.8,327.9,949.8,331.2,939.8,331.2z M940.3,263.2c-8.1,0-14.8,2.9-20.1,8.8c-5.3,5.9-7.9,13.6-7.9,23.1c0,9.6,2.5,17.3,7.5,23
			s11.6,8.6,19.9,8.6c8.7,0,15.5-2.8,20.6-8.5c5-5.6,7.6-13.5,7.6-23.6c0-9.9-2.5-17.6-7.4-23.2C955.5,266,948.8,263.2,940.3,263.2z
			"/>
	</g>
</g>
</svg>
