<?xml version="1.0" encoding="utf-8"?>
<!-- Generator: Adobe Illustrator 20.0.0, SVG Export Plug-In . SVG Version: 6.00 Build 0)  -->
<svg version="1.1" xmlns="http://www.w3.org/2000/svg" xmlns:xlink="http://www.w3.org/1999/xlink" x="0px" y="0px" width="110px"
	 height="32px" viewBox="0 0 110 32" style="enable-background:new 0 0 110 32;" xml:space="preserve">
<style type="text/css">
	.st0{display:none;}
	.st1{display:inline;fill:#FFFFFF;}
	.st2{opacity:8.000000e-02;fill:#282828;}
	.st3{fill:#282828;}
	.st4{fill:#FFC413;}
</style>
<g id="background" class="st0">
	<rect class="st1" width="110" height="32"/>
</g>
<g id="logo">
	<g>
		<path class="st2" d="M12.3,2.9c1-0.1,2.1-0.2,3.1-0.4c4.8-0.6,9.6-0.7,14.4-0.8C34.5,1.5,39,2,43.4,3c1.8,0.4,3.5,0.9,5.1,1.8
			c1,0.6,2.2,0.9,3.4,0.9c2.2,0,4.4,0.1,6.6-0.1c1-0.1,2-0.4,2.9-0.8c2.3-1.2,4.8-1.8,7.3-2.3c4.8-1,9.7-1.1,14.6-0.8
			c3.8,0.2,7.6,0.5,11.4,0.8c1,0.1,2,0.2,3,0.3c0,0.4,0,0.8,0,1.2c-0.1,0.9-0.2,1.8-0.2,2.7c0,0.7-0.1,1.2-0.9,1.6
			c-1.2,0.6-1.7,1.8-1.9,3.1c-0.5,3-1.1,6.1-2.1,9c-0.3,1-0.7,1.9-1.1,2.9c-1.6,3.6-4.5,5.7-8.2,6.7c-2,0.5-4,0.5-6.1,0.4
			c-2.4-0.2-4.8-0.6-7.1-1.3c-3.1-1-5.6-2.8-7.4-5.5c-2.2-3.2-3.9-6.6-4.7-10.5c-0.4-2.2-2.4-3.2-4.4-2.5c-1.2,0.4-1.7,1.4-1.9,2.5
			c-0.8,4.2-2.7,7.8-5.2,11.2c-1.7,2.3-3.9,3.7-6.5,4.6c-3.9,1.3-7.9,1.9-12,1.3c-4.4-0.6-7.9-2.8-9.7-7c-0.5-1.3-1.1-2.6-1.4-3.9
			c-0.6-2.6-1.2-5.2-1.7-7.8c-0.3-1.6-1-2.8-2.5-3.5c-0.1,0-0.2-0.3-0.2-0.4c-0.1-1-0.1-2-0.1-3c0-0.2,0-0.3-0.1-0.5
			C12.3,3.6,12.3,3.2,12.3,2.9z M77.8,4.1c-3,0.1-5,0.1-7,0.2c-1.9,0.1-3.8,0.6-5.6,1.5c-1.5,0.8-2.6,1.9-3,3.5
			c-0.2,0.8-0.4,1.6-0.4,2.4c-0.3,3.8,0.8,7.3,3,10.5c1.1,1.6,2.3,3,4.1,3.8c3.8,1.7,7.7,2.4,11.8,2c1.7-0.2,3.3-0.6,4.8-1.4
			c1.6-0.9,2.7-2.4,3.7-3.9c2.3-3.6,2.8-7.6,2.7-11.7c0-2.1-1.1-3.8-2.8-4.9c-1.4-0.9-3-1.5-4.7-1.7C81.8,4.3,79.3,4.2,77.8,4.1z
			 M31.5,28.2c2.9-0.1,5.8-0.6,8.5-1.7c1-0.4,2-0.9,2.9-1.6c2.7-2.4,4.3-5.5,5.1-9c0.4-1.8,0.4-3.6,0.1-5.4C47.8,8,46.3,6.4,44,5.4
			c-2-0.8-4-1.2-6.1-1.2c-3.2-0.1-6.3,0-9.5,0c-1.2,0-2.4,0.2-3.6,0.4c-0.8,0.1-1.5,0.4-2.3,0.7c-3.2,1.4-4.7,3.8-4.4,7.3
			c0.1,1.1,0.2,2.1,0.3,3.2c0.4,3.4,1.7,6.4,4,9.1c0.6,0.7,1.4,1.4,2.3,1.8C26.8,27.9,29.1,28.2,31.5,28.2z M14.5,5.3
			c0,0.3,0,0.5,0,0.8c1.2,0,2.5,0,3.7,0c0-0.3,0-0.5,0-0.8C16.9,5.3,15.7,5.3,14.5,5.3z M95.5,5.3c-1.3,0-2.5,0-3.7,0
			c0,0.3,0,0.5,0,0.8c1.2,0,2.5,0,3.7,0C95.5,5.9,95.5,5.6,95.5,5.3z"/>
		<g>
			<path class="st3" d="M45.4,13.8V9.4c0-0.1,0-0.4,0-0.9h0c-0.1,0.2-0.2,0.4-0.2,0.5L43,13.8h-0.1L40.7,9c-0.1-0.2-0.1-0.3-0.2-0.6
				h0c0,0.3,0,0.6,0,0.8v4.5H40V7.5h0.4l2.3,5c0,0,0,0.1,0,0.1c0,0,0,0.1,0.1,0.1c0,0.1,0.1,0.2,0.1,0.3h0l0-0.1
				c0,0,0.1-0.1,0.1-0.4l2.3-5h0.4v6.2H45.4z"/>
			<path class="st3" d="M47.4,13.8V7.5h0.4v6.2H47.4z"/>
			<path class="st3" d="M53.6,13.6c-0.5,0.2-1,0.3-1.6,0.3c-0.9,0-1.5-0.3-2.1-0.9c-0.5-0.6-0.8-1.3-0.8-2.2c0-1,0.3-1.8,0.9-2.4
				c0.6-0.6,1.3-0.9,2.2-0.9c0.5,0,0.9,0.1,1.4,0.2v0.5c-0.4-0.2-0.9-0.3-1.4-0.3c-0.8,0-1.4,0.3-1.9,0.8c-0.5,0.5-0.7,1.2-0.7,2.1
				c0,0.8,0.2,1.5,0.7,2c0.5,0.5,1.1,0.7,1.8,0.7c0.6,0,1.1-0.1,1.5-0.3V13.6z"/>
			<path class="st3" d="M59,13.8v-3h-3.6v3H55V7.5h0.4v2.8H59V7.5h0.4v6.2H59z"/>
			<path class="st3" d="M61,13.8V7.5h0.4v6.2H61z"/>
			<path class="st3" d="M63,13.8V7.5H66v0.4h-2.5v2.5h2.3v0.4h-2.3v2.6h2.6v0.4H63z"/>
			<path class="st3" d="M67.5,13.8V7.5h0.4v5.8h2.5v0.4H67.5z"/>
			<path class="st3" d="M24.7,24.6c-0.9,0-1.6-0.3-2.1-0.9c-0.5-0.6-0.8-1.3-0.8-2.3c0-1,0.3-1.8,0.8-2.4c0.5-0.6,1.3-0.9,2.2-0.9
				c0.8,0,1.5,0.3,2,0.9c0.5,0.6,0.8,1.3,0.8,2.3c0,1-0.3,1.8-0.8,2.4C26.3,24.3,25.6,24.6,24.7,24.6z M24.8,18.5
				c-0.7,0-1.3,0.3-1.8,0.8c-0.5,0.5-0.7,1.2-0.7,2.1c0,0.9,0.2,1.5,0.7,2c0.4,0.5,1,0.8,1.8,0.8c0.8,0,1.4-0.3,1.8-0.8
				c0.4-0.5,0.7-1.2,0.7-2.1c0-0.9-0.2-1.6-0.7-2.1C26.1,18.8,25.5,18.5,24.8,18.5z"/>
			<path class="st3" d="M29.4,22v2.5h-0.4v-6.2h1.5c0.6,0,1.1,0.1,1.5,0.4c0.3,0.3,0.5,0.7,0.5,1.3c0,0.6-0.2,1.1-0.6,1.4
				c-0.4,0.4-0.9,0.6-1.6,0.6H29.4z M29.4,18.6v2.9h0.9c0.6,0,1-0.1,1.3-0.4c0.3-0.3,0.4-0.6,0.4-1.1c0-0.9-0.5-1.4-1.6-1.4H29.4z"
				/>
			<path class="st3" d="M34.2,22v2.5h-0.4v-6.2h1.5c0.6,0,1.1,0.1,1.5,0.4c0.3,0.3,0.5,0.7,0.5,1.3c0,0.6-0.2,1.1-0.6,1.4
				c-0.4,0.4-0.9,0.6-1.6,0.6H34.2z M34.2,18.6v2.9h0.9c0.6,0,1-0.1,1.3-0.4c0.3-0.3,0.4-0.6,0.4-1.1c0-0.9-0.5-1.4-1.6-1.4H34.2z"
				/>
			<path class="st3" d="M38.6,24.4v-6.2h2.9v0.4H39v2.5h2.3v0.4H39v2.6h2.6v0.4H38.6z"/>
			<path class="st3" d="M47.5,24.4l-3.7-5c-0.1-0.1-0.1-0.2-0.2-0.3L43.5,19h0c0,0.1,0,0.2,0,0.3v5.2h-0.4v-6.2h0.3l3.7,5
				c0.1,0.1,0.2,0.2,0.3,0.4h0c0-0.2,0-0.4,0-0.5v-4.9h0.4v6.2H47.5z"/>
			<path class="st3" d="M53.4,24.4v-3h-3.6v3h-0.4v-6.2h0.4v2.8h3.6v-2.8h0.4v6.2H53.4z"/>
			<path class="st3" d="M55.4,24.4v-6.2h2.9v0.4h-2.5v2.5h2.3v0.4h-2.3v2.6h2.6v0.4H55.4z"/>
			<path class="st3" d="M59.8,24.4v-6.2h0.4v6.2H59.8z"/>
			<path class="st3" d="M67.3,24.4V20c0-0.1,0-0.4,0-0.9h0c-0.1,0.2-0.2,0.4-0.2,0.5l-2.2,4.8h-0.1l-2.2-4.8
				c-0.1-0.2-0.1-0.3-0.2-0.6h0c0,0.3,0,0.6,0,0.8v4.5h-0.4v-6.2h0.4l2.3,5c0,0,0,0.1,0,0.1c0,0,0,0.1,0.1,0.1
				c0,0.1,0.1,0.2,0.1,0.3h0l0-0.1c0,0,0.1-0.1,0.1-0.4l2.3-5h0.4v6.2H67.3z"/>
			<path class="st3" d="M69.3,24.4v-6.2h2.9v0.4h-2.5v2.5H72v0.4h-2.3v2.6h2.6v0.4H69.3z"/>
			<path class="st3" d="M76.9,24.4l-0.8-1.8c-0.2-0.4-0.3-0.6-0.5-0.8c-0.2-0.1-0.4-0.2-0.6-0.2h-0.8v2.8h-0.4v-6.2h1.7
				c0.6,0,1,0.1,1.3,0.4c0.3,0.3,0.5,0.7,0.5,1.2c0,0.4-0.1,0.8-0.4,1.1c-0.3,0.3-0.6,0.5-1.1,0.6v0c0.2,0.1,0.5,0.4,0.7,0.9l0.9,2
				H76.9z M74.1,18.6v2.7h1.1c0.5,0,0.9-0.1,1.1-0.4c0.3-0.2,0.4-0.6,0.4-1c0-0.4-0.1-0.7-0.4-0.9c-0.3-0.2-0.6-0.3-1.1-0.3H74.1z"
				/>
			<path class="st4" d="M78.8,24.5c-0.1,0-0.2,0-0.2-0.1c-0.1-0.1-0.1-0.2-0.1-0.2c0-0.1,0-0.2,0.1-0.2c0.1-0.1,0.1-0.1,0.2-0.1
				c0.1,0,0.2,0,0.3,0.1c0.1,0.1,0.1,0.1,0.1,0.2c0,0.1,0,0.2-0.1,0.2S78.9,24.5,78.8,24.5z"/>
			<path class="st3" d="M80.6,24.4v-6.2h0.4v6.2H80.6z"/>
			<path class="st3" d="M85.2,24.6c-0.9,0-1.6-0.3-2.1-0.9c-0.5-0.6-0.8-1.3-0.8-2.3c0-1,0.3-1.8,0.8-2.4c0.5-0.6,1.3-0.9,2.2-0.9
				c0.8,0,1.5,0.3,2,0.9c0.5,0.6,0.8,1.3,0.8,2.3c0,1-0.3,1.8-0.8,2.4C86.8,24.3,86.1,24.6,85.2,24.6z M85.3,18.5
				c-0.7,0-1.3,0.3-1.8,0.8c-0.5,0.5-0.7,1.2-0.7,2.1c0,0.9,0.2,1.5,0.7,2c0.4,0.5,1,0.8,1.8,0.8c0.8,0,1.4-0.3,1.8-0.8
				c0.4-0.5,0.7-1.2,0.7-2.1c0-0.9-0.2-1.6-0.7-2.1C86.6,18.8,86,18.5,85.3,18.5z"/>
		</g>
	</g>
</g>
</svg>
